<?xml version="1.0" standalone="no"?><svg xmlns="http://www.w3.org/2000/svg" viewBox="0 0 1440 320"><path fill="#0f0f0f" fill-opacity="1" d="M0,64L0,128L42.4,128L42.4,256L84.7,256L84.7,160L127.1,160L127.1,128L169.4,128L169.4,64L211.8,64L211.8,160L254.1,160L254.1,32L296.5,32L296.5,64L338.8,64L338.8,96L381.2,96L381.2,160L423.5,160L423.5,224L465.9,224L465.9,32L508.2,32L508.2,192L550.6,192L550.6,32L592.9,32L592.9,288L635.3,288L635.3,224L677.6,224L677.6,224L720,224L720,0L762.4,0L762.4,64L804.7,64L804.7,0L847.1,0L847.1,64L889.4,64L889.4,128L931.8,128L931.8,288L974.1,288L974.1,128L1016.5,128L1016.5,96L1058.8,96L1058.8,192L1101.2,192L1101.2,64L1143.5,64L1143.5,32L1185.9,32L1185.9,224L1228.2,224L1228.2,160L1270.6,160L1270.6,160L1312.9,160L1312.9,160L1355.3,160L1355.3,256L1397.6,256L1397.6,192L1440,192L1440,320L1397.6,320L1397.6,320L1355.3,320L1355.3,320L1312.9,320L1312.9,320L1270.6,320L1270.6,320L1228.2,320L1228.2,320L1185.9,320L1185.9,320L1143.5,320L1143.5,320L1101.2,320L1101.2,320L1058.8,320L1058.8,320L1016.5,320L1016.5,320L974.1,320L974.1,320L931.8,320L931.8,320L889.4,320L889.4,320L847.1,320L847.1,320L804.7,320L804.7,320L762.4,320L762.4,320L720,320L720,320L677.6,320L677.6,320L635.3,320L635.3,320L592.9,320L592.9,320L550.6,320L550.6,320L508.2,320L508.2,320L465.9,320L465.9,320L423.5,320L423.5,320L381.2,320L381.2,320L338.8,320L338.8,320L296.5,320L296.5,320L254.1,320L254.1,320L211.8,320L211.8,320L169.4,320L169.4,320L127.1,320L127.1,320L84.7,320L84.7,320L42.4,320L42.4,320L0,320L0,320Z"></path></svg>