<?xml version="1.0" standalone="no"?><svg xmlns="http://www.w3.org/2000/svg" viewBox="0 0 1440 320"><path fill="#272829" fill-opacity="1" d="M0,256L0,128L36.9,128L36.9,96L73.8,96L73.8,96L110.8,96L110.8,64L147.7,64L147.7,224L184.6,224L184.6,192L221.5,192L221.5,128L258.5,128L258.5,64L295.4,64L295.4,160L332.3,160L332.3,256L369.2,256L369.2,288L406.2,288L406.2,224L443.1,224L443.1,32L480,32L480,192L516.9,192L516.9,64L553.8,64L553.8,32L590.8,32L590.8,224L627.7,224L627.7,224L664.6,224L664.6,160L701.5,160L701.5,96L738.5,96L738.5,128L775.4,128L775.4,256L812.3,256L812.3,160L849.2,160L849.2,96L886.2,96L886.2,96L923.1,96L923.1,256L960,256L960,288L996.9,288L996.9,224L1033.8,224L1033.8,192L1070.8,192L1070.8,224L1107.7,224L1107.7,96L1144.6,96L1144.6,256L1181.5,256L1181.5,0L1218.5,0L1218.5,96L1255.4,96L1255.4,64L1292.3,64L1292.3,256L1329.2,256L1329.2,192L1366.2,192L1366.2,192L1403.1,192L1403.1,128L1440,128L1440,320L1403.1,320L1403.1,320L1366.2,320L1366.2,320L1329.2,320L1329.2,320L1292.3,320L1292.3,320L1255.4,320L1255.4,320L1218.5,320L1218.5,320L1181.5,320L1181.5,320L1144.6,320L1144.6,320L1107.7,320L1107.7,320L1070.8,320L1070.8,320L1033.8,320L1033.8,320L996.9,320L996.9,320L960,320L960,320L923.1,320L923.1,320L886.2,320L886.2,320L849.2,320L849.2,320L812.3,320L812.3,320L775.4,320L775.4,320L738.5,320L738.5,320L701.5,320L701.5,320L664.6,320L664.6,320L627.7,320L627.7,320L590.8,320L590.8,320L553.8,320L553.8,320L516.9,320L516.9,320L480,320L480,320L443.1,320L443.1,320L406.2,320L406.2,320L369.2,320L369.2,320L332.3,320L332.3,320L295.4,320L295.4,320L258.5,320L258.5,320L221.5,320L221.5,320L184.6,320L184.6,320L147.7,320L147.7,320L110.8,320L110.8,320L73.8,320L73.8,320L36.9,320L36.9,320L0,320L0,320Z"></path></svg>